<?xml version="1.0" encoding="UTF-8"?>
<svg xmlns="http://www.w3.org/2000/svg" xmlns:xlink="http://www.w3.org/1999/xlink" width="854" height="480" viewBox="0 0 854 480">
<defs>
<g>
<g id="glyph-0-0">
<path d="M 0.125 0 L 0.125 -0.234375 L 0.3125 -0.234375 C 0.375 -0.234375 0.425781 -0.25 0.46875 -0.28125 C 0.507812 -0.3125 0.53125 -0.394531 0.53125 -0.53125 L 0.53125 -2.65625 C 0.53125 -2.78125 0.507812 -2.859375 0.46875 -2.890625 C 0.425781 -2.921875 0.375 -2.9375 0.3125 -2.9375 L 0.125 -2.9375 L 0.125 -3.171875 L 1.109375 -3.171875 L 2.671875 -0.953125 L 2.671875 -2.65625 C 2.671875 -2.78125 2.644531 -2.859375 2.59375 -2.890625 C 2.550781 -2.921875 2.503906 -2.9375 2.453125 -2.9375 L 2.265625 -2.9375 L 2.265625 -3.171875 L 3.421875 -3.171875 L 3.421875 -2.9375 L 3.234375 -2.9375 C 3.171875 -2.9375 3.117188 -2.914062 3.078125 -2.875 C 3.035156 -2.84375 3.015625 -2.765625 3.015625 -2.640625 L 3.015625 0 L 2.59375 0 L 0.875 -2.4375 L 0.875 -0.53125 C 0.875 -0.394531 0.894531 -0.3125 0.9375 -0.28125 C 0.976562 -0.25 1.03125 -0.234375 1.09375 -0.234375 L 1.28125 -0.234375 L 1.28125 0 Z "/>
</g>
<g id="glyph-0-1">
<path d="M 1.75 0.046875 C 1.414062 0.046875 1.132812 -0.0195312 0.90625 -0.15625 C 0.6875 -0.289062 0.519531 -0.476562 0.40625 -0.71875 C 0.300781 -0.96875 0.25 -1.257812 0.25 -1.59375 C 0.25 -1.914062 0.300781 -2.195312 0.40625 -2.4375 C 0.519531 -2.6875 0.6875 -2.878906 0.90625 -3.015625 C 1.132812 -3.148438 1.414062 -3.21875 1.75 -3.21875 C 2.070312 -3.21875 2.34375 -3.148438 2.5625 -3.015625 C 2.789062 -2.878906 2.960938 -2.6875 3.078125 -2.4375 C 3.191406 -2.195312 3.25 -1.914062 3.25 -1.59375 C 3.25 -1.257812 3.1875 -0.96875 3.0625 -0.71875 C 2.945312 -0.476562 2.78125 -0.289062 2.5625 -0.15625 C 2.34375 -0.0195312 2.070312 0.046875 1.75 0.046875 Z M 1.75 -0.25 C 2.03125 -0.25 2.222656 -0.363281 2.328125 -0.59375 C 2.441406 -0.832031 2.5 -1.164062 2.5 -1.59375 C 2.5 -2.007812 2.441406 -2.332031 2.328125 -2.5625 C 2.222656 -2.800781 2.03125 -2.921875 1.75 -2.921875 C 1.46875 -2.921875 1.269531 -2.800781 1.15625 -2.5625 C 1.039062 -2.332031 0.984375 -2.007812 0.984375 -1.59375 C 0.984375 -1.164062 1.039062 -0.832031 1.15625 -0.59375 C 1.269531 -0.363281 1.46875 -0.25 1.75 -0.25 Z "/>
</g>
<g id="glyph-0-2">
<path d="M 0.375 -2.703125 C 0.34375 -2.796875 0.300781 -2.859375 0.25 -2.890625 C 0.207031 -2.921875 0.144531 -2.9375 0.0625 -2.9375 L 0 -2.9375 L 0 -3.171875 L 1.484375 -3.171875 L 1.484375 -2.9375 L 1.375 -2.9375 C 1.195312 -2.9375 1.109375 -2.863281 1.109375 -2.71875 C 1.109375 -2.695312 1.113281 -2.660156 1.125 -2.609375 C 1.132812 -2.566406 1.144531 -2.523438 1.15625 -2.484375 L 1.453125 -1.453125 C 1.472656 -1.378906 1.492188 -1.296875 1.515625 -1.203125 C 1.546875 -1.117188 1.570312 -1.03125 1.59375 -0.9375 C 1.613281 -0.851562 1.625 -0.78125 1.625 -0.71875 C 1.644531 -0.8125 1.664062 -0.898438 1.6875 -0.984375 C 1.71875 -1.066406 1.742188 -1.148438 1.765625 -1.234375 L 2.359375 -3.140625 L 2.6875 -3.140625 L 3.296875 -1.4375 C 3.347656 -1.300781 3.390625 -1.164062 3.421875 -1.03125 C 3.460938 -0.894531 3.492188 -0.785156 3.515625 -0.703125 C 3.535156 -0.804688 3.5625 -0.929688 3.59375 -1.078125 C 3.625 -1.234375 3.65625 -1.382812 3.6875 -1.53125 L 3.921875 -2.484375 C 3.929688 -2.515625 3.941406 -2.554688 3.953125 -2.609375 C 3.960938 -2.660156 3.96875 -2.695312 3.96875 -2.71875 C 3.96875 -2.800781 3.941406 -2.859375 3.890625 -2.890625 C 3.847656 -2.921875 3.773438 -2.9375 3.671875 -2.9375 L 3.578125 -2.9375 L 3.578125 -3.171875 L 4.734375 -3.171875 L 4.734375 -2.9375 L 4.65625 -2.9375 C 4.5625 -2.9375 4.488281 -2.914062 4.4375 -2.875 C 4.394531 -2.832031 4.351562 -2.738281 4.3125 -2.59375 L 3.625 0 L 3.125 0 L 2.375 -2.078125 L 1.734375 0 L 1.1875 0 Z "/>
</g>
</g>
</defs>
<g fill="rgb(96.862745%, 85.098039%, 43.529412%)" fill-opacity="1">
<use xlink:href="#glyph-0-0" x="30" y="24.750977"/>
<use xlink:href="#glyph-0-1" x="34" y="24.750977"/>
<use xlink:href="#glyph-0-2" x="37" y="24.750977"/>
</g>
</svg>
