<?xml version="1.0" encoding="UTF-8"?>
<svg xmlns="http://www.w3.org/2000/svg" xmlns:xlink="http://www.w3.org/1999/xlink" width="854" height="480" viewBox="0 0 854 480">
<defs>
<g>
<g id="glyph-0-0">
<path d="M 1.015625 0.03125 C 0.816406 0.03125 0.65625 -0.0195312 0.53125 -0.125 C 0.40625 -0.238281 0.3125 -0.394531 0.25 -0.59375 C 0.1875 -0.789062 0.15625 -1.023438 0.15625 -1.296875 C 0.15625 -1.566406 0.1875 -1.796875 0.25 -1.984375 C 0.3125 -2.179688 0.40625 -2.332031 0.53125 -2.4375 C 0.65625 -2.550781 0.816406 -2.609375 1.015625 -2.609375 C 1.203125 -2.609375 1.359375 -2.550781 1.484375 -2.4375 C 1.609375 -2.332031 1.703125 -2.179688 1.765625 -1.984375 C 1.828125 -1.785156 1.859375 -1.554688 1.859375 -1.296875 C 1.859375 -1.023438 1.828125 -0.789062 1.765625 -0.59375 C 1.703125 -0.394531 1.609375 -0.238281 1.484375 -0.125 C 1.359375 -0.0195312 1.203125 0.03125 1.015625 0.03125 Z M 1.015625 -0.15625 C 1.191406 -0.15625 1.3125 -0.253906 1.375 -0.453125 C 1.445312 -0.660156 1.484375 -0.941406 1.484375 -1.296875 C 1.484375 -1.648438 1.445312 -1.925781 1.375 -2.125 C 1.3125 -2.320312 1.191406 -2.421875 1.015625 -2.421875 C 0.835938 -2.421875 0.710938 -2.320312 0.640625 -2.125 C 0.566406 -1.925781 0.53125 -1.648438 0.53125 -1.296875 C 0.53125 -0.941406 0.566406 -0.660156 0.640625 -0.453125 C 0.710938 -0.253906 0.835938 -0.15625 1.015625 -0.15625 Z "/>
</g>
</g>
</defs>
<g fill="rgb(100%, 100%, 100%)" fill-opacity="1">
<use xlink:href="#glyph-0-0" x="30" y="23.859375"/>
</g>
</svg>
