<?xml version="1.0" encoding="UTF-8"?>
<svg xmlns="http://www.w3.org/2000/svg" xmlns:xlink="http://www.w3.org/1999/xlink" width="854" height="480" viewBox="0 0 854 480">
<defs>
<g>
<g id="glyph-0-0">
<path d="M 0.5625 0.03125 C 0.445312 0.03125 0.347656 -0.00390625 0.265625 -0.078125 C 0.179688 -0.148438 0.140625 -0.265625 0.140625 -0.421875 C 0.140625 -0.566406 0.191406 -0.671875 0.296875 -0.734375 C 0.398438 -0.804688 0.554688 -0.847656 0.765625 -0.859375 L 1 -0.875 L 1 -1.03125 C 1 -1.101562 0.992188 -1.164062 0.984375 -1.21875 C 0.972656 -1.269531 0.945312 -1.304688 0.90625 -1.328125 C 0.875 -1.359375 0.820312 -1.375 0.75 -1.375 C 0.675781 -1.375 0.617188 -1.359375 0.578125 -1.328125 C 0.546875 -1.304688 0.523438 -1.273438 0.515625 -1.234375 C 0.503906 -1.191406 0.5 -1.140625 0.5 -1.078125 C 0.414062 -1.078125 0.351562 -1.085938 0.3125 -1.109375 C 0.269531 -1.140625 0.25 -1.1875 0.25 -1.25 C 0.25 -1.3125 0.269531 -1.363281 0.3125 -1.40625 C 0.363281 -1.445312 0.425781 -1.472656 0.5 -1.484375 C 0.582031 -1.503906 0.664062 -1.515625 0.75 -1.515625 C 0.925781 -1.515625 1.054688 -1.476562 1.140625 -1.40625 C 1.222656 -1.332031 1.265625 -1.207031 1.265625 -1.03125 L 1.265625 -0.3125 C 1.265625 -0.238281 1.273438 -0.1875 1.296875 -0.15625 C 1.328125 -0.125 1.375 -0.109375 1.4375 -0.109375 L 1.453125 -0.109375 L 1.453125 0 L 1.078125 0 L 1.03125 -0.234375 L 1 -0.234375 C 0.96875 -0.179688 0.929688 -0.132812 0.890625 -0.09375 C 0.847656 -0.0625 0.800781 -0.03125 0.75 0 C 0.707031 0.0195312 0.644531 0.03125 0.5625 0.03125 Z M 0.640625 -0.140625 C 0.742188 -0.140625 0.828125 -0.175781 0.890625 -0.25 C 0.960938 -0.320312 1 -0.414062 1 -0.53125 L 1 -0.75 L 0.828125 -0.75 C 0.671875 -0.738281 0.5625 -0.703125 0.5 -0.640625 C 0.4375 -0.585938 0.40625 -0.507812 0.40625 -0.40625 C 0.40625 -0.226562 0.484375 -0.140625 0.640625 -0.140625 Z "/>
</g>
</g>
</defs>
<g fill="rgb(100%, 100%, 100%)" fill-opacity="1">
<use xlink:href="#glyph-0-0" x="30" y="22.96875"/>
</g>
</svg>
