<?xml version="1.0" encoding="UTF-8"?>
<svg xmlns="http://www.w3.org/2000/svg" xmlns:xlink="http://www.w3.org/1999/xlink" width="854" height="480" viewBox="0 0 854 480">
<defs>
<g>
<g id="glyph-0-0">
<path d="M 0.6875 0 L 1.609375 -2.46875 L 0.640625 -2.46875 C 0.492188 -2.46875 0.414062 -2.398438 0.40625 -2.265625 L 0.390625 -2.078125 L 0.234375 -2.078125 L 0.25 -2.78125 L 1.984375 -2.78125 L 1.984375 -2.671875 L 1.03125 0 Z "/>
</g>
<g id="glyph-0-1">
<path d="M 1 0.03125 C 0.75 0.03125 0.554688 -0.0507812 0.421875 -0.21875 C 0.285156 -0.394531 0.21875 -0.664062 0.21875 -1.03125 C 0.21875 -1.414062 0.285156 -1.691406 0.421875 -1.859375 C 0.554688 -2.035156 0.75 -2.125 1 -2.125 C 1.15625 -2.125 1.28125 -2.09375 1.375 -2.03125 C 1.46875 -1.96875 1.546875 -1.882812 1.609375 -1.78125 L 1.625 -1.78125 C 1.613281 -1.84375 1.609375 -1.910156 1.609375 -1.984375 C 1.609375 -2.066406 1.609375 -2.140625 1.609375 -2.203125 L 1.609375 -2.53125 C 1.609375 -2.644531 1.570312 -2.71875 1.5 -2.75 C 1.4375 -2.78125 1.363281 -2.796875 1.28125 -2.796875 L 1.25 -2.796875 L 1.25 -2.953125 L 1.96875 -2.953125 L 1.96875 -0.421875 C 1.96875 -0.304688 2 -0.234375 2.0625 -0.203125 C 2.125 -0.171875 2.195312 -0.15625 2.28125 -0.15625 L 2.3125 -0.15625 L 2.3125 0 L 1.65625 0 L 1.625 -0.34375 L 1.609375 -0.34375 C 1.546875 -0.226562 1.46875 -0.132812 1.375 -0.0625 C 1.28125 0 1.15625 0.03125 1 0.03125 Z M 1.078125 -0.203125 C 1.273438 -0.203125 1.410156 -0.269531 1.484375 -0.40625 C 1.566406 -0.550781 1.609375 -0.757812 1.609375 -1.03125 C 1.609375 -1.300781 1.566406 -1.507812 1.484375 -1.65625 C 1.410156 -1.800781 1.269531 -1.875 1.0625 -1.875 C 0.894531 -1.875 0.773438 -1.800781 0.703125 -1.65625 C 0.628906 -1.507812 0.59375 -1.300781 0.59375 -1.03125 C 0.59375 -0.757812 0.628906 -0.550781 0.703125 -0.40625 C 0.773438 -0.269531 0.898438 -0.203125 1.078125 -0.203125 Z "/>
</g>
</g>
</defs>
<g fill="rgb(100%, 100%, 100%)" fill-opacity="1">
<use xlink:href="#glyph-0-0" x="30" y="24.158203"/>
<use xlink:href="#glyph-0-1" x="32" y="24.158203"/>
</g>
</svg>
