<?xml version="1.0" encoding="UTF-8"?>
<svg xmlns="http://www.w3.org/2000/svg" xmlns:xlink="http://www.w3.org/1999/xlink" width="854" height="480" viewBox="0 0 854 480">
<defs>
<g>
<g id="glyph-0-0">
<path d="M 0.171875 0 L 0.171875 -0.328125 L 0.421875 -0.328125 C 0.515625 -0.328125 0.585938 -0.347656 0.640625 -0.390625 C 0.703125 -0.429688 0.734375 -0.53125 0.734375 -0.6875 L 0.734375 -3.671875 C 0.734375 -3.828125 0.703125 -3.925781 0.640625 -3.96875 C 0.585938 -4.007812 0.515625 -4.03125 0.421875 -4.03125 L 0.171875 -4.03125 L 0.171875 -4.359375 L 1.9375 -4.359375 L 2.9375 -1.40625 L 3.921875 -4.359375 L 5.640625 -4.359375 L 5.640625 -4.03125 L 5.390625 -4.03125 C 5.296875 -4.03125 5.21875 -4.007812 5.15625 -3.96875 C 5.101562 -3.925781 5.078125 -3.816406 5.078125 -3.640625 L 5.078125 -0.71875 C 5.078125 -0.539062 5.101562 -0.429688 5.15625 -0.390625 C 5.21875 -0.347656 5.296875 -0.328125 5.390625 -0.328125 L 5.640625 -0.328125 L 5.640625 0 L 3.6875 0 L 3.6875 -0.328125 L 3.75 -0.328125 C 3.882812 -0.328125 3.984375 -0.34375 4.046875 -0.375 C 4.109375 -0.414062 4.140625 -0.515625 4.140625 -0.671875 L 4.140625 -3.75 L 2.90625 0 L 2.484375 0 L 1.203125 -3.75 L 1.203125 -0.71875 C 1.203125 -0.539062 1.238281 -0.429688 1.3125 -0.390625 C 1.394531 -0.347656 1.507812 -0.328125 1.65625 -0.328125 L 1.6875 -0.328125 L 1.6875 0 Z "/>
</g>
<g id="glyph-0-1">
<path d="M 1.859375 0.0625 C 1.367188 0.0625 0.984375 -0.078125 0.703125 -0.359375 C 0.421875 -0.640625 0.28125 -1.070312 0.28125 -1.65625 C 0.28125 -2.226562 0.414062 -2.65625 0.6875 -2.9375 C 0.957031 -3.21875 1.351562 -3.359375 1.875 -3.359375 C 2.363281 -3.359375 2.75 -3.21875 3.03125 -2.9375 C 3.3125 -2.65625 3.453125 -2.226562 3.453125 -1.65625 C 3.453125 -1.070312 3.316406 -0.640625 3.046875 -0.359375 C 2.773438 -0.078125 2.378906 0.0625 1.859375 0.0625 Z M 1.875 -0.328125 C 2.113281 -0.328125 2.28125 -0.4375 2.375 -0.65625 C 2.46875 -0.882812 2.515625 -1.21875 2.515625 -1.65625 C 2.515625 -2.082031 2.460938 -2.40625 2.359375 -2.625 C 2.265625 -2.851562 2.101562 -2.96875 1.875 -2.96875 C 1.632812 -2.96875 1.46875 -2.851562 1.375 -2.625 C 1.28125 -2.40625 1.234375 -2.082031 1.234375 -1.65625 C 1.234375 -1.21875 1.28125 -0.882812 1.375 -0.65625 C 1.46875 -0.4375 1.632812 -0.328125 1.875 -0.328125 Z "/>
</g>
<g id="glyph-0-2">
<path d="M 1.53125 0.0625 C 1.125 0.0625 0.8125 -0.0703125 0.59375 -0.34375 C 0.382812 -0.613281 0.28125 -1.039062 0.28125 -1.625 C 0.28125 -2.21875 0.382812 -2.648438 0.59375 -2.921875 C 0.8125 -3.203125 1.117188 -3.34375 1.515625 -3.34375 C 1.742188 -3.34375 1.929688 -3.296875 2.078125 -3.203125 C 2.222656 -3.117188 2.335938 -3.003906 2.421875 -2.859375 L 2.46875 -2.859375 C 2.445312 -2.972656 2.429688 -3.097656 2.421875 -3.234375 C 2.421875 -3.378906 2.421875 -3.503906 2.421875 -3.609375 L 2.421875 -3.9375 C 2.421875 -4.101562 2.367188 -4.207031 2.265625 -4.25 C 2.171875 -4.289062 2.054688 -4.3125 1.921875 -4.3125 L 1.875 -4.3125 L 1.875 -4.640625 L 3.34375 -4.640625 L 3.34375 -0.75 C 3.34375 -0.625 3.363281 -0.53125 3.40625 -0.46875 C 3.457031 -0.414062 3.519531 -0.378906 3.59375 -0.359375 C 3.675781 -0.335938 3.765625 -0.328125 3.859375 -0.328125 L 3.875 -0.328125 L 3.875 0 L 2.6875 0 L 2.515625 -0.46875 L 2.46875 -0.46875 C 2.375 -0.3125 2.253906 -0.179688 2.109375 -0.078125 C 1.960938 0.015625 1.769531 0.0625 1.53125 0.0625 Z M 1.796875 -0.390625 C 2.035156 -0.390625 2.195312 -0.492188 2.28125 -0.703125 C 2.375 -0.910156 2.421875 -1.222656 2.421875 -1.640625 C 2.421875 -2.046875 2.375 -2.351562 2.28125 -2.5625 C 2.195312 -2.78125 2.035156 -2.890625 1.796875 -2.890625 C 1.585938 -2.890625 1.4375 -2.78125 1.34375 -2.5625 C 1.257812 -2.351562 1.21875 -2.046875 1.21875 -1.640625 C 1.21875 -1.222656 1.257812 -0.910156 1.34375 -0.703125 C 1.4375 -0.492188 1.585938 -0.390625 1.796875 -0.390625 Z "/>
</g>
<g id="glyph-0-3">
<path d="M 1.875 0.0625 C 1.351562 0.0625 0.957031 -0.0820312 0.6875 -0.375 C 0.414062 -0.675781 0.28125 -1.09375 0.28125 -1.625 C 0.28125 -2.195312 0.410156 -2.628906 0.671875 -2.921875 C 0.941406 -3.210938 1.316406 -3.359375 1.796875 -3.359375 C 2.242188 -3.359375 2.59375 -3.234375 2.84375 -2.984375 C 3.101562 -2.734375 3.234375 -2.363281 3.234375 -1.875 L 3.234375 -1.5625 L 1.234375 -1.5625 C 1.242188 -1.15625 1.316406 -0.859375 1.453125 -0.671875 C 1.597656 -0.484375 1.796875 -0.390625 2.046875 -0.390625 C 2.253906 -0.390625 2.429688 -0.4375 2.578125 -0.53125 C 2.722656 -0.632812 2.832031 -0.753906 2.90625 -0.890625 C 3.019531 -0.828125 3.078125 -0.726562 3.078125 -0.59375 C 3.078125 -0.414062 2.976562 -0.257812 2.78125 -0.125 C 2.582031 0 2.28125 0.0625 1.875 0.0625 Z M 2.296875 -1.96875 C 2.296875 -2.28125 2.257812 -2.519531 2.1875 -2.6875 C 2.113281 -2.863281 1.988281 -2.953125 1.8125 -2.953125 C 1.644531 -2.953125 1.507812 -2.867188 1.40625 -2.703125 C 1.300781 -2.535156 1.242188 -2.289062 1.234375 -1.96875 Z "/>
</g>
<g id="glyph-0-4">
<path d="M 0.125 0 L 0.125 -0.328125 L 0.140625 -0.328125 C 0.273438 -0.328125 0.382812 -0.347656 0.46875 -0.390625 C 0.5625 -0.441406 0.609375 -0.566406 0.609375 -0.765625 L 0.609375 -2.53125 C 0.609375 -2.707031 0.566406 -2.820312 0.484375 -2.875 C 0.410156 -2.925781 0.304688 -2.953125 0.171875 -2.953125 L 0.15625 -2.953125 L 0.15625 -3.28125 L 1.390625 -3.28125 L 1.515625 -2.796875 L 1.546875 -2.796875 C 1.617188 -2.984375 1.71875 -3.117188 1.84375 -3.203125 C 1.96875 -3.296875 2.15625 -3.34375 2.40625 -3.34375 C 2.875 -3.34375 3.109375 -3.179688 3.109375 -2.859375 C 3.109375 -2.671875 3.035156 -2.523438 2.890625 -2.421875 C 2.753906 -2.316406 2.566406 -2.265625 2.328125 -2.265625 C 2.328125 -2.429688 2.304688 -2.554688 2.265625 -2.640625 C 2.222656 -2.722656 2.144531 -2.765625 2.03125 -2.765625 C 1.925781 -2.765625 1.835938 -2.726562 1.765625 -2.65625 C 1.703125 -2.582031 1.65625 -2.488281 1.625 -2.375 C 1.59375 -2.269531 1.570312 -2.160156 1.5625 -2.046875 C 1.550781 -1.941406 1.546875 -1.859375 1.546875 -1.796875 L 1.546875 -0.734375 C 1.546875 -0.554688 1.582031 -0.441406 1.65625 -0.390625 C 1.738281 -0.347656 1.84375 -0.328125 1.96875 -0.328125 L 2.15625 -0.328125 L 2.15625 0 Z "/>
</g>
<g id="glyph-0-5">
<path d="M 1.234375 0.0625 C 0.960938 0.0625 0.734375 -0.015625 0.546875 -0.171875 C 0.367188 -0.335938 0.28125 -0.59375 0.28125 -0.9375 C 0.28125 -1.257812 0.390625 -1.5 0.609375 -1.65625 C 0.835938 -1.820312 1.179688 -1.914062 1.640625 -1.9375 L 2.140625 -1.953125 L 2.140625 -2.28125 C 2.140625 -2.488281 2.117188 -2.65625 2.078125 -2.78125 C 2.035156 -2.914062 1.929688 -2.984375 1.765625 -2.984375 C 1.609375 -2.984375 1.5 -2.921875 1.4375 -2.796875 C 1.382812 -2.671875 1.359375 -2.515625 1.359375 -2.328125 C 1.085938 -2.328125 0.878906 -2.351562 0.734375 -2.40625 C 0.597656 -2.46875 0.53125 -2.578125 0.53125 -2.734375 C 0.53125 -2.878906 0.585938 -2.992188 0.703125 -3.078125 C 0.816406 -3.171875 0.96875 -3.238281 1.15625 -3.28125 C 1.351562 -3.332031 1.566406 -3.359375 1.796875 -3.359375 C 2.222656 -3.359375 2.539062 -3.28125 2.75 -3.125 C 2.96875 -2.96875 3.078125 -2.695312 3.078125 -2.3125 L 3.078125 -0.75 C 3.078125 -0.582031 3.101562 -0.46875 3.15625 -0.40625 C 3.207031 -0.351562 3.300781 -0.328125 3.4375 -0.328125 L 3.46875 -0.328125 L 3.46875 0 L 2.328125 0 L 2.203125 -0.421875 L 2.140625 -0.421875 C 2.054688 -0.304688 1.972656 -0.210938 1.890625 -0.140625 C 1.804688 -0.078125 1.710938 -0.03125 1.609375 0 C 1.515625 0.0390625 1.390625 0.0625 1.234375 0.0625 Z M 1.5625 -0.390625 C 1.738281 -0.390625 1.878906 -0.457031 1.984375 -0.59375 C 2.085938 -0.738281 2.140625 -0.929688 2.140625 -1.171875 L 2.140625 -1.625 L 1.875 -1.609375 C 1.625 -1.597656 1.453125 -1.53125 1.359375 -1.40625 C 1.265625 -1.289062 1.21875 -1.125 1.21875 -0.90625 C 1.21875 -0.5625 1.332031 -0.390625 1.5625 -0.390625 Z "/>
</g>
<g id="glyph-0-6">
<path d="M 1.484375 0.0625 C 1.210938 0.0625 0.992188 -0.00390625 0.828125 -0.140625 C 0.671875 -0.285156 0.59375 -0.539062 0.59375 -0.90625 L 0.59375 -2.859375 L 0.125 -2.859375 L 0.125 -3.171875 C 0.257812 -3.171875 0.378906 -3.195312 0.484375 -3.25 C 0.585938 -3.300781 0.671875 -3.359375 0.734375 -3.421875 C 0.859375 -3.554688 0.953125 -3.757812 1.015625 -4.03125 L 1.515625 -4.03125 L 1.515625 -3.28125 L 2.296875 -3.28125 L 2.296875 -2.859375 L 1.515625 -2.859375 L 1.515625 -0.96875 C 1.515625 -0.78125 1.546875 -0.644531 1.609375 -0.5625 C 1.671875 -0.476562 1.773438 -0.4375 1.921875 -0.4375 C 2.003906 -0.4375 2.078125 -0.441406 2.140625 -0.453125 C 2.210938 -0.460938 2.285156 -0.472656 2.359375 -0.484375 L 2.359375 -0.09375 C 2.285156 -0.0625 2.175781 -0.03125 2.03125 0 C 1.882812 0.0390625 1.703125 0.0625 1.484375 0.0625 Z "/>
</g>
<g id="glyph-0-7">
</g>
<g id="glyph-0-8">
<path d="M 2.25 0.84375 C 1.570312 0.570312 1.082031 0.207031 0.78125 -0.25 C 0.488281 -0.71875 0.34375 -1.28125 0.34375 -1.9375 C 0.34375 -2.59375 0.488281 -3.148438 0.78125 -3.609375 C 1.082031 -4.078125 1.570312 -4.445312 2.25 -4.71875 L 2.25 -4.328125 C 2 -4.160156 1.804688 -3.953125 1.671875 -3.703125 C 1.535156 -3.453125 1.441406 -3.175781 1.390625 -2.875 C 1.347656 -2.570312 1.328125 -2.257812 1.328125 -1.9375 C 1.328125 -1.613281 1.347656 -1.300781 1.390625 -1 C 1.441406 -0.695312 1.535156 -0.421875 1.671875 -0.171875 C 1.804688 0.078125 2 0.285156 2.25 0.453125 Z "/>
</g>
<g id="glyph-0-9">
<path d="M 0.59375 0 L 0.59375 -0.328125 L 1.09375 -0.328125 C 1.195312 -0.328125 1.273438 -0.351562 1.328125 -0.40625 C 1.378906 -0.46875 1.40625 -0.570312 1.40625 -0.71875 L 1.40625 -3.78125 C 1.25 -3.59375 1.109375 -3.4375 0.984375 -3.3125 C 0.859375 -3.195312 0.734375 -3.140625 0.609375 -3.140625 C 0.515625 -3.140625 0.429688 -3.179688 0.359375 -3.265625 C 0.285156 -3.347656 0.25 -3.457031 0.25 -3.59375 C 0.375 -3.625 0.507812 -3.671875 0.65625 -3.734375 C 0.8125 -3.804688 0.992188 -3.914062 1.203125 -4.0625 L 1.625 -4.390625 L 2.3125 -4.390625 L 2.3125 -0.71875 C 2.3125 -0.59375 2.332031 -0.492188 2.375 -0.421875 C 2.414062 -0.359375 2.5 -0.328125 2.625 -0.328125 L 3.109375 -0.328125 L 3.109375 0 Z "/>
</g>
<g id="glyph-0-10">
<path d="M 1.3125 -1.703125 C 0.925781 -1.703125 0.644531 -1.828125 0.46875 -2.078125 C 0.289062 -2.335938 0.203125 -2.671875 0.203125 -3.078125 C 0.203125 -3.484375 0.289062 -3.804688 0.46875 -4.046875 C 0.644531 -4.296875 0.925781 -4.421875 1.3125 -4.421875 C 1.675781 -4.421875 1.945312 -4.296875 2.125 -4.046875 C 2.3125 -3.804688 2.40625 -3.484375 2.40625 -3.078125 C 2.40625 -2.671875 2.3125 -2.335938 2.125 -2.078125 C 1.945312 -1.828125 1.675781 -1.703125 1.3125 -1.703125 Z M 1.46875 0 L 3.578125 -4.359375 L 4.046875 -4.359375 L 1.9375 0 Z M 1.3125 -2.015625 C 1.46875 -2.015625 1.570312 -2.109375 1.625 -2.296875 C 1.675781 -2.484375 1.703125 -2.742188 1.703125 -3.078125 C 1.703125 -3.398438 1.675781 -3.648438 1.625 -3.828125 C 1.570312 -4.015625 1.46875 -4.109375 1.3125 -4.109375 C 1.164062 -4.109375 1.054688 -4.015625 0.984375 -3.828125 C 0.921875 -3.648438 0.890625 -3.398438 0.890625 -3.078125 C 0.890625 -2.742188 0.921875 -2.484375 0.984375 -2.296875 C 1.046875 -2.109375 1.15625 -2.015625 1.3125 -2.015625 Z M 4.234375 0.0625 C 3.835938 0.0625 3.550781 -0.0625 3.375 -0.3125 C 3.207031 -0.5625 3.125 -0.890625 3.125 -1.296875 C 3.125 -1.710938 3.207031 -2.039062 3.375 -2.28125 C 3.550781 -2.53125 3.835938 -2.65625 4.234375 -2.65625 C 4.597656 -2.65625 4.867188 -2.53125 5.046875 -2.28125 C 5.234375 -2.039062 5.328125 -1.710938 5.328125 -1.296875 C 5.328125 -0.890625 5.234375 -0.5625 5.046875 -0.3125 C 4.867188 -0.0625 4.597656 0.0625 4.234375 0.0625 Z M 4.234375 -0.25 C 4.378906 -0.25 4.476562 -0.335938 4.53125 -0.515625 C 4.59375 -0.703125 4.625 -0.960938 4.625 -1.296875 C 4.625 -1.628906 4.59375 -1.882812 4.53125 -2.0625 C 4.476562 -2.25 4.378906 -2.34375 4.234375 -2.34375 C 4.085938 -2.34375 3.976562 -2.25 3.90625 -2.0625 C 3.84375 -1.882812 3.8125 -1.628906 3.8125 -1.296875 C 3.8125 -0.960938 3.84375 -0.703125 3.90625 -0.515625 C 3.96875 -0.335938 4.078125 -0.25 4.234375 -0.25 Z "/>
</g>
<g id="glyph-0-11">
<path d="M 0.203125 0.453125 C 0.453125 0.285156 0.640625 0.078125 0.765625 -0.171875 C 0.898438 -0.421875 0.988281 -0.695312 1.03125 -1 C 1.082031 -1.300781 1.109375 -1.613281 1.109375 -1.9375 C 1.109375 -2.257812 1.082031 -2.570312 1.03125 -2.875 C 0.988281 -3.175781 0.898438 -3.453125 0.765625 -3.703125 C 0.640625 -3.953125 0.453125 -4.160156 0.203125 -4.328125 L 0.203125 -4.71875 C 0.878906 -4.445312 1.363281 -4.078125 1.65625 -3.609375 C 1.945312 -3.148438 2.09375 -2.59375 2.09375 -1.9375 C 2.09375 -1.28125 1.945312 -0.71875 1.65625 -0.25 C 1.363281 0.207031 0.878906 0.570312 0.203125 0.84375 Z "/>
</g>
</g>
</defs>
<g fill="rgb(51.372549%, 75.686275%, 40.392157%)" fill-opacity="1">
<use xlink:href="#glyph-0-0" x="30" y="26.532227"/>
<use xlink:href="#glyph-0-1" x="36" y="26.532227"/>
<use xlink:href="#glyph-0-2" x="40" y="26.532227"/>
<use xlink:href="#glyph-0-3" x="44" y="26.532227"/>
<use xlink:href="#glyph-0-4" x="47" y="26.532227"/>
<use xlink:href="#glyph-0-5" x="50" y="26.532227"/>
<use xlink:href="#glyph-0-6" x="54" y="26.532227"/>
<use xlink:href="#glyph-0-3" x="56" y="26.532227"/>
<use xlink:href="#glyph-0-7" x="59" y="26.532227"/>
<use xlink:href="#glyph-0-8" x="61" y="26.532227"/>
<use xlink:href="#glyph-0-9" x="63" y="26.532227"/>
<use xlink:href="#glyph-0-10" x="66" y="26.532227"/>
<use xlink:href="#glyph-0-11" x="72" y="26.532227"/>
</g>
</svg>
